<svg width="493" height="408" viewBox="0 0 493 408" fill="none" xmlns="http://www.w3.org/2000/svg">
<path d="M435.607 233.218C432.903 256.389 427.283 274.992 419.57 289.829C409.306 309.597 391.75 317.562 376.066 325.896C371.535 328.3 366.823 330.349 361.974 332.024C333.435 341.928 301.494 339.301 276.404 334.071C258.806 330.4 240.943 328.142 222.985 327.318C217.863 327.087 212.737 326.972 207.605 326.974C199.691 326.984 57.2023 329.689 22.5102 259.453C13.945 242.127 8.074 220.963 5.96476 195.165C-0.00371219 122.229 32.7998 74.3274 75.1128 43.0173C155.156 -16.2107 264.872 -13.7268 343.735 47.0613C396.266 87.5525 445.451 148.833 435.607 233.218Z" fill="#F2F2F2"/>
<path d="M153.959 212.102C153.959 270.076 119.494 290.319 76.9794 290.319C34.4649 290.319 0 270.076 0 212.102C0 154.128 76.9794 80.375 76.9794 80.375C76.9794 80.375 153.959 154.128 153.959 212.102Z" fill="#2D9CDB"/>
<path d="M74.1739 281.451L74.9622 232.932L107.773 172.907L75.0859 225.321L75.44 203.505L98.053 160.077L75.5339 197.731L76.1713 158.494L100.386 123.92L76.2714 152.324L76.6696 80.376L74.1668 175.622L74.3726 171.693L49.7535 134.009L73.9779 179.235L71.6839 223.057L71.6157 221.893L43.2344 182.237L71.5294 226.003L71.2426 231.483L71.1912 231.565L71.2149 232.015L65.3952 343.195H73.1706L74.1036 285.768L102.329 242.11L74.1739 281.451Z" fill="#3F3D56"/>
<path d="M492.67 215.695C492.67 273.669 458.205 293.912 415.69 293.912C373.176 293.912 338.711 273.669 338.711 215.695C338.711 157.72 415.69 83.9678 415.69 83.9678C415.69 83.9678 492.67 157.72 492.67 215.695Z" fill="#2D9CDB"/>
<path d="M412.885 285.043L413.673 236.524L446.484 176.499L413.797 228.912L414.151 207.096L436.764 163.669L414.245 201.323L414.882 162.085L439.097 127.511L414.982 155.915L415.381 83.9678L412.878 179.213L413.083 175.284L388.464 137.601L412.689 182.827L410.395 226.649L410.327 225.485L381.945 185.829L410.24 229.594L409.954 235.075L409.902 235.157L409.926 235.607L404.106 346.786H411.882L412.815 289.36L441.04 245.702L412.885 285.043Z" fill="#3F3D56"/>
<path d="M332.551 166.458C332.551 229.843 294.869 251.975 248.387 251.975C201.904 251.975 164.223 229.843 164.223 166.458C164.223 103.073 248.387 22.4365 248.387 22.4365C248.387 22.4365 332.551 103.073 332.551 166.458Z" fill="#2D9CDB"/>
<path d="M245.32 242.279L246.181 189.231L282.054 123.603L246.317 180.909L246.704 157.057L271.427 109.576L246.806 150.745L247.503 107.845L273.978 70.0442L247.613 101.099L248.048 22.4365L245.312 126.572L245.537 122.276L218.62 81.0753L245.105 130.522L242.597 178.434L242.523 177.162L211.492 133.805L242.429 181.655L242.115 187.647L242.059 187.737L242.084 188.229L235.721 309.785H244.223L245.243 246.999L276.103 199.266L245.32 242.279Z" fill="#3F3D56"/>
<path d="M426.979 352.043C426.979 365.648 337.829 407.981 227.858 407.981C117.887 407.981 28.7383 365.648 28.7383 352.043C28.7383 338.438 110.703 307.908 220.674 307.908C330.645 307.908 426.979 338.438 426.979 352.043Z" fill="#3F3D56"/>
<path opacity="0.1" d="M426.979 352.043C426.979 365.648 337.829 407.981 227.858 407.981C117.887 407.981 28.7383 365.648 28.7383 352.043C28.7383 338.438 110.703 307.908 220.674 307.908C330.645 307.908 426.979 338.438 426.979 352.043Z" fill="black"/>
<path d="M426.979 352.043C426.979 365.648 337.829 376.676 227.858 376.676C117.887 376.676 28.7383 365.648 28.7383 352.043C28.7383 338.438 110.703 307.908 220.674 307.908C330.645 307.908 426.979 338.438 426.979 352.043Z" fill="#3F3D56"/>
<path d="M294.797 283.829C294.797 303.345 307.04 319.138 322.171 319.138Z" fill="#3F3D56"/>
<path d="M322.168 319.138C322.168 299.402 335.831 283.433 352.716 283.433Z" fill="#2D9CDB"/>
<path d="M304.711 285.599C304.711 304.137 312.518 319.138 322.167 319.138Z" fill="#2D9CDB"/>
<path d="M322.168 319.138C322.168 293.921 337.96 273.515 357.477 273.515Z" fill="#3F3D56"/>
<path d="M316.41 319.387C316.41 319.387 320.292 319.267 321.462 318.434C322.632 317.601 327.434 316.606 327.724 317.942C328.014 319.278 333.558 324.588 329.175 324.623C324.792 324.658 318.991 323.94 317.824 323.229C316.656 322.518 316.41 319.387 316.41 319.387Z" fill="#A8A8A8"/>
<path opacity="0.2" d="M329.254 324.158C324.871 324.193 319.07 323.475 317.902 322.764C317.013 322.222 316.658 320.279 316.54 319.382C316.458 319.385 316.41 319.387 316.41 319.387C316.41 319.387 316.656 322.518 317.824 323.229C318.991 323.94 324.792 324.659 329.175 324.623C330.441 324.613 330.878 324.163 330.854 323.496C330.678 323.899 330.195 324.15 329.254 324.158Z" fill="black"/>
<path opacity="0.1" d="M230.425 360.254C267.838 360.254 298.167 355.429 298.167 349.477C298.167 343.525 267.838 338.7 230.425 338.7C193.013 338.7 162.684 343.525 162.684 349.477C162.684 355.429 193.013 360.254 230.425 360.254Z" fill="black"/>
<path d="M260.191 325.356H253.52V340.752H260.191V325.356Z" fill="#FFB9B9"/>
<path d="M260.703 117.513H235.043V163.7H260.703V117.513Z" fill="#FF6584"/>
<path d="M279.55 204.926L280.437 212.031L257.05 219.136L254.09 206.11L279.55 204.926Z" fill="#FFB9B9"/>
<path d="M244.914 136.541C244.914 136.541 244.322 141.87 243.138 141.87C241.954 141.87 237.809 143.942 237.809 143.942L236.625 149.567L244.914 154.599L258.532 153.119L262.38 147.198L258.532 143.35C258.532 143.35 255.275 136.245 256.46 134.765C257.644 133.284 244.914 136.541 244.914 136.541Z" fill="#FFB9B9"/>
<path opacity="0.1" d="M244.914 136.541C244.914 136.541 244.322 141.87 243.138 141.87C241.954 141.87 237.809 143.942 237.809 143.942L236.625 149.567L244.914 154.599L258.532 153.119L262.38 147.198L258.532 143.35C258.532 143.35 255.275 136.245 256.46 134.765C257.644 133.284 244.914 136.541 244.914 136.541Z" fill="black"/>
<path d="M207.909 320.973C207.909 320.973 205.244 338.735 201.988 339.919C198.731 341.103 214.421 343.176 214.421 343.176L215.606 336.663C215.606 336.663 215.902 324.821 217.086 323.045C218.27 321.269 207.909 320.973 207.909 320.973Z" fill="#FFB9B9"/>
<path d="M238.102 217.655C238.102 217.655 281.027 209.958 281.323 208.478C281.619 206.998 290.205 219.728 284.876 244.595C279.547 269.462 266.225 328.078 266.225 328.078C266.225 328.078 252.608 332.223 252.904 328.966C253.2 325.71 257.64 269.166 257.64 269.166L254.68 245.187L249.647 248.147L228.628 289.593L217.971 325.414C217.971 325.414 204.353 327.782 206.426 322.749C208.498 317.717 215.307 278.639 215.307 278.639L233.957 223.576C233.957 223.576 233.365 217.655 238.102 217.655Z" fill="#2F2E41"/>
<path d="M248.91 140.537C255.777 140.537 261.344 134.97 261.344 128.104C261.344 121.237 255.777 115.67 248.91 115.67C242.043 115.67 236.477 121.237 236.477 128.104C236.477 134.97 242.043 140.537 248.91 140.537Z" fill="#FFB9B9"/>
<path d="M261.786 143.646C261.786 143.646 255.866 149.27 241.952 147.79C228.038 146.31 245.8 179.466 245.8 179.466L251.425 212.919C251.425 212.919 276.292 209.958 277.18 204.334C278.068 198.709 261.786 143.646 261.786 143.646Z" fill="#F2F2F2"/>
<path d="M255.867 175.322C255.867 175.322 248.762 171.769 246.097 162C243.433 152.231 241.065 142.165 239.585 142.461C238.335 142.711 226.744 147.182 222.987 150.172C222.295 150.723 221.868 151.224 221.822 151.639C221.526 154.303 232.48 180.946 232.48 180.946C232.48 180.946 241.065 200.189 237.512 206.406C233.96 212.623 233.664 220.616 240.177 220.024C246.69 219.431 268.3 218.247 265.34 201.669C265.34 201.669 270.965 213.215 286.655 204.926C286.655 204.926 296.128 203.445 295.832 200.189C295.536 196.933 280.734 168.809 280.734 168.809C280.734 168.809 278.366 156.375 282.806 151.639L272.741 139.797C272.741 139.797 270.373 136.245 268.004 138.021C265.636 139.797 260.307 142.757 259.419 143.053C258.531 143.349 257.947 141.989 257.947 141.989C255.896 146.28 255.074 151.054 255.571 155.783C256.459 163.48 255.867 175.322 255.867 175.322Z" fill="#2F2E41"/>
<path d="M208.795 336.367C208.795 336.367 208.134 334.295 204.32 336.367C204.32 336.367 205.539 329.854 201.394 329.854C197.249 329.854 195.769 337.551 195.769 337.551C195.769 337.551 194.585 342.584 186.592 344.656C178.599 346.729 184.816 353.834 190.441 353.834C196.065 353.834 203.466 349.393 203.466 349.393C203.466 349.393 218.86 349.689 219.156 346.729C219.452 343.768 217.676 334.887 216.492 334.887C215.308 334.887 212.939 339.032 212.939 339.032L208.795 336.367Z" fill="#2F2E41"/>
<path d="M259.121 331.157C259.121 331.157 254.976 326.717 252.608 334.117C250.24 341.518 248.463 344.479 249.944 345.663C251.424 346.847 252.608 346.255 252.016 348.623C251.424 350.992 253.792 356.024 259.121 356.024C264.45 356.024 265.93 352.176 265.634 349.512C265.338 346.847 262.969 343.591 262.969 343.591L260.601 335.302L259.121 331.157Z" fill="#2F2E41"/>
<path d="M282.507 122.923L266.817 128.252C266.817 128.252 252.607 136.541 258.824 138.317C265.04 140.093 270.369 132.988 270.369 132.988L283.987 129.436L282.507 122.923Z" fill="#FFB9B9"/>
<path d="M240.448 108.877C238.585 110.153 237.102 111.901 235.692 113.665C232.827 117.248 230.02 121.528 230.726 126.062C230.994 127.784 231.759 129.386 232.19 131.075C232.772 133.354 232.733 135.738 232.691 138.09C232.726 139.089 232.602 140.087 232.324 141.048C231.91 141.983 231.422 142.885 230.866 143.744C229.44 146.4 229.405 149.555 229.404 152.569C229.335 153.584 229.473 154.602 229.81 155.562C230.199 156.469 230.924 157.179 231.525 157.961C232.521 159.283 233.185 160.824 233.463 162.455C233.741 164.086 233.623 165.76 233.12 167.337C233.892 167.34 234.65 167.123 235.304 166.711C235.957 166.299 236.48 165.709 236.81 165.01C236.912 165.761 236.848 166.526 236.62 167.249C236.393 167.972 236.008 168.637 235.494 169.194C238.883 168.187 242.516 166.489 243.753 163.177C244.116 162.052 244.32 160.881 244.361 159.7C245.019 151.392 245.395 142.774 242.415 134.991C241.462 132.501 240.165 130.091 239.845 127.444C239.526 124.797 240.502 121.738 242.934 120.645C242.991 121.323 243.292 121.957 243.781 122.429C244.322 122.831 245.323 122.579 245.333 121.905L246.508 123.54C246.958 123.319 247.343 122.984 247.623 122.567L248.428 123.553L250.141 122.307L251.628 123.911C252.201 123.585 252.657 123.088 252.934 122.49C253.254 122.968 253.649 123.494 254.222 123.545C255.469 123.658 255.726 121.679 256.816 121.062C257.218 120.884 257.671 120.856 258.092 120.984C258.513 121.111 258.875 121.386 259.111 121.757C259.56 122.521 259.724 123.42 259.573 124.294C259.122 128.364 255.648 132.079 256.678 136.043C257.257 138.272 259.208 140.059 259.355 142.357C259.472 144.194 258.393 145.932 258.409 147.772C258.429 149.929 259.919 151.761 261.374 153.353C263.963 156.188 266.688 158.889 269.549 161.458L268.665 159.911C269.078 159.879 269.493 159.936 269.881 160.079C270.27 160.222 270.623 160.447 270.916 160.739C271.17 159.85 270.749 158.924 270.351 158.089C267.971 153.092 266.05 147.77 265.763 142.242C265.364 134.557 268.127 126.753 266.376 119.261C265.369 115.065 263.021 111.313 259.69 108.572C258.07 107.239 256.842 106.44 254.745 106.293C252.401 106.09 250.042 106.108 247.701 106.349C245.115 106.595 242.627 107.462 240.448 108.877Z" fill="#FF6584"/>
<path d="M270.371 140.093C270.371 140.093 273.628 140.389 275.108 140.093C276.588 139.797 278.66 138.317 278.66 138.317L289.91 130.027L280.14 131.508C280.14 131.508 281.917 117.89 281.325 117.594C280.732 117.298 310.04 111.673 309.448 120.85C308.856 130.027 292.278 148.086 282.805 151.638L276.588 152.526L270.371 140.093Z" fill="#2F2E41"/>
<path d="M302.273 245.046H162.684V277.89H302.273V245.046Z" fill="white"/>
<path d="M284.052 252.487H180.387V269.936H284.052V252.487Z" fill="#3F3D56"/>
<path d="M204.478 260.829C204.436 260.381 202.457 260.182 199.742 260.294C201.315 258.079 202.227 256.311 201.874 256.032C201.541 255.769 200.18 256.905 198.523 258.75C198.367 256.275 198.003 254.54 197.579 254.54C197.117 254.54 196.726 256.604 196.597 259.442C194.292 257.784 192.429 256.81 192.143 257.173C191.869 257.52 193.115 258.982 195.097 260.733C192.482 261.12 190.64 261.668 190.68 262.108C190.722 262.555 192.701 262.754 195.416 262.642C193.843 264.858 192.931 266.626 193.284 266.904C193.617 267.167 194.978 266.031 196.635 264.186C196.791 266.661 197.155 268.396 197.579 268.396C198.041 268.396 198.432 266.332 198.56 263.495C200.866 265.153 202.728 266.126 203.015 265.763C203.289 265.417 202.042 263.954 200.061 262.204C202.676 261.816 204.518 261.268 204.478 260.829Z" fill="white"/>
<path d="M221.927 260.829C221.885 260.381 219.906 260.182 217.191 260.294C218.764 258.079 219.676 256.311 219.323 256.032C218.991 255.769 217.63 256.905 215.972 258.75C215.816 256.275 215.452 254.54 215.028 254.54C214.566 254.54 214.175 256.604 214.047 259.442C211.741 257.784 209.879 256.81 209.592 257.173C209.318 257.52 210.565 258.982 212.546 260.733C209.931 261.12 208.089 261.668 208.13 262.108C208.171 262.555 210.15 262.754 212.865 262.642C211.292 264.858 210.381 266.626 210.733 266.904C211.066 267.167 212.427 266.031 214.084 264.186C214.241 266.661 214.604 268.396 215.028 268.396C215.49 268.396 215.881 266.332 216.01 263.495C218.316 265.153 220.178 266.126 220.464 265.763C220.738 265.417 219.492 263.954 217.51 262.204C220.125 261.816 221.967 261.268 221.927 260.829Z" fill="white"/>
<path d="M239.376 260.829C239.334 260.381 237.355 260.182 234.64 260.294C236.214 258.079 237.125 256.311 236.772 256.032C236.44 255.769 235.079 256.905 233.422 258.75C233.265 256.275 232.901 254.54 232.477 254.54C232.015 254.54 231.624 256.604 231.496 259.442C229.19 257.784 227.328 256.81 227.041 257.173C226.768 257.52 228.014 258.982 229.995 260.733C227.38 261.12 225.538 261.668 225.579 262.108C225.62 262.555 227.599 262.754 230.315 262.642C228.741 264.858 227.83 266.626 228.182 266.904C228.515 267.167 229.876 266.031 231.533 264.186C231.69 266.661 232.054 268.396 232.477 268.396C232.94 268.396 233.33 266.332 233.459 263.495C235.765 265.153 237.627 266.126 237.914 265.763C238.187 265.417 236.941 263.954 234.96 262.204C237.574 261.816 239.417 261.268 239.376 260.829Z" fill="white"/>
<path d="M256.825 260.829C256.784 260.381 254.805 260.182 252.089 260.294C253.663 258.079 254.574 256.311 254.222 256.032C253.889 255.769 252.528 256.905 250.871 258.75C250.714 256.275 250.35 254.54 249.927 254.54C249.464 254.54 249.073 256.604 248.945 259.442C246.639 257.784 244.777 256.81 244.49 257.173C244.217 257.52 245.463 258.982 247.444 260.733C244.829 261.12 242.987 261.668 243.028 262.108C243.069 262.555 245.048 262.754 247.764 262.642C246.19 264.858 245.279 266.626 245.632 266.904C245.964 267.167 247.325 266.031 248.982 264.186C249.139 266.661 249.503 268.396 249.927 268.396C250.389 268.396 250.78 266.332 250.908 263.495C253.214 265.153 255.076 266.126 255.363 265.763C255.636 265.417 254.39 263.954 252.409 262.204C255.024 261.816 256.866 261.268 256.825 260.829Z" fill="white"/>
<path d="M274.274 260.829C274.233 260.381 272.254 260.182 269.539 260.294C271.112 258.079 272.023 256.311 271.671 256.032C271.338 255.769 269.977 256.905 268.32 258.75C268.163 256.275 267.8 254.54 267.376 254.54C266.913 254.54 266.523 256.604 266.394 259.442C264.088 257.784 262.226 256.81 261.94 257.173C261.666 257.52 262.912 258.982 264.894 260.733C262.279 261.12 260.437 261.668 260.477 262.108C260.519 262.555 262.498 262.754 265.213 262.642C263.64 264.858 262.728 266.626 263.081 266.904C263.413 267.167 264.774 266.031 266.432 264.186C266.588 266.661 266.952 268.396 267.376 268.396C267.838 268.396 268.229 266.332 268.357 263.495C270.663 265.153 272.525 266.126 272.812 265.763C273.086 265.417 271.839 263.954 269.858 262.204C272.473 261.816 274.315 261.268 274.274 260.829Z" fill="white"/>
<path d="M220.046 230.977C220.046 230.977 218.566 250.516 225.671 251.404C232.776 252.292 226.263 229.201 226.263 229.201L220.046 230.977Z" fill="#FFB9B9"/>
<path d="M223.893 151.047L221.82 151.639C221.82 151.639 213.235 220.32 218.86 233.642C218.86 233.642 224.781 230.385 227.741 230.977L232.478 175.026L223.893 151.047Z" fill="#2F2E41"/>
</svg>
